{
  "source": "C:\\Users\\Peter\\Desktop\\stuff\\MIUN\\quantitative_research\\video_compression\\videos\\UVG\\YachtRide_1920x1080_120fps_420_8bit_YUV.y4m",
  "output": "C:\\Users\\Peter\\Desktop\\stuff\\MIUN\\quantitative_research\\video_compression\\compressed_videos\\UVG\\av1\\12\\YachtRide_1920x1080_120fps_420_8bit_YUV_av1.mkv",
  "codec": "av1",
  "ok": "[yuv4mpegpipe @ 0000024cdbc254c0] Stream #0: not enough frames to estimate rate; consider increasing probesize\nInput #0, yuv4mpegpipe, from 'C:\\Users\\Peter\\Desktop\\stuff\\MIUN\\quantitative_research\\video_compression\\videos\\UVG\\YachtRide_1920x1080_120fps_420_8bit_YUV.y4m':\n  Duration: 00:00:05.00, start: 0.000000, bitrate: 2985989 kb/s\n  Stream #0:0: Video: rawvideo (I420 / 0x30323449), yuv420p(progressive), 1920x1080, 120 fps, 120 tbr, 120 tbn\n[out#0/matroska @ 0000024cdbc293c0] Codec AVOption b:a (set bitrate (in bits/s)) has not been used for any stream. The most likely reason is either wrong type (e.g. a video option with no video streams) or that it is a private option of some decoder which was not actually used for any stream.\nStream mapping:\n  Stream #0:0 -> #0:0 (rawvideo (native) -> av1 (libsvtav1))\nPress [q] to stop, [?] for help\nSvt[info]: -------------------------------------------\nSvt[info]: SVT [version]:\tSVT-AV1 Encoder Lib v3.1.0-19-g6ecfe8ec\nSvt[info]: SVT [build]  :\tGCC 15.2.0\t 64 bit\nSvt[info]: LIB Build date: Aug 17 2025 11:37:13\nSvt[info]: -------------------------------------------\n[libsvtav1 @ 0000024cdbc2c500] Specified chroma sample location center is unsupported on the AV1 bit stream level. Usage of a container that allows passing this information - such as Matroska - is recommended.\nSvt[info]: Level of Parallelism: 5\nSvt[info]: Number of PPCS 93\nSvt[info]: [asm level on system : up to avx2]\nSvt[info]: [asm level selected : up to avx2]\nSvt[info]: -------------------------------------------\nSvt[info]: SVT [config]: main profile\ttier (auto)\tlevel (auto)\nSvt[info]: SVT [config]: width / height / fps numerator / fps denominator \t\t: 1920 / 1080 / 120 / 1\nSvt[info]: SVT [config]: bit-depth / color format \t\t\t\t\t: 8 / YUV420\nSvt[info]: SVT [config]: preset / tune / pred struct \t\t\t\t\t: 4 / PSNR / random access\nSvt[info]: SVT [config]: gop size / mini-gop size / key-frame type \t\t\t: 641 / 16 / key frame\nSvt[info]: SVT [config]: BRC mode / target bitrate (kbps)\t\t\t\t: VBR / 12000 \nSvt[info]: SVT [config]: AQ mode / Variance Boost \t\t\t\t\t: 2 / 0\nSvt[info]: SVT [config]: sharpness / luminance-based QP bias \t\t\t\t: 0 / 0\nSvt[info]: SVT [config]: QP scale compress strength \t\t\t\t\t: 0\nSvt[info]: -------------------------------------------\nOutput #0, matroska, to 'C:\\Users\\Peter\\Desktop\\stuff\\MIUN\\quantitative_research\\video_compression\\compressed_videos\\UVG\\av1\\12\\YachtRide_1920x1080_120fps_420_8bit_YUV_av1.mkv':\n  Metadata:\n    encoder         : Lavf62.3.100\n  Stream #0:0: Video: av1 (AV01 / 0x31305641), yuv420p(tv, progressive), 1920x1080, q=2-31, 12000 kb/s, 120 fps, 1k tbn\n    Metadata:\n      encoder         : Lavc62.11.100 libsvtav1\n    Side data:\n      cpb: bitrate max/min/avg: 0/0/12000000 buffer size: 12000000 vbv_delay: N/A\nframe=    0 fps=0.0 q=0.0 size=       0KiB time=N/A bitrate=N/A speed=N/A elapsed=0:00:00.50    \nframe=    0 fps=0.0 q=0.0 size=       0KiB time=N/A bitrate=N/A speed=N/A elapsed=0:00:01.08    \nframe=    0 fps=0.0 q=0.0 size=       0KiB time=N/A bitrate=N/A speed=N/A elapsed=0:00:01.66    \nframe=    0 fps=0.0 q=0.0 size=       0KiB time=N/A bitrate=N/A speed=N/A elapsed=0:00:02.18    \nframe=    0 fps=0.0 q=0.0 size=       0KiB time=N/A bitrate=N/A speed=N/A elapsed=0:00:02.69    \nframe=    1 fps=0.3 q=12.0 size=       1KiB time=00:00:00.00 bitrate=N/A speed=   0x elapsed=0:00:03.21    \nframe=    1 fps=0.3 q=12.0 size=       1KiB time=00:00:00.00 bitrate=N/A speed=   0x elapsed=0:00:03.77    \nframe=    1 fps=0.2 q=12.0 size=       1KiB time=00:00:00.00 bitrate=N/A speed=   0x elapsed=0:00:04.28    \nframe=    3 fps=0.6 q=34.0 size=       1KiB time=00:00:00.00 bitrate= 537.6kbits/s speed=0.00173x elapsed=0:00:04.80    \nframe=    6 fps=1.1 q=37.0 size=       1KiB time=00:00:00.04 bitrate= 107.5kbits/s speed=0.0078x elapsed=0:00:05.33    \nframe=    7 fps=1.2 q=32.0 size=       1KiB time=00:00:00.05 bitrate=  89.6kbits/s speed=0.00854x elapsed=0:00:05.85    \nframe=   10 fps=1.6 q=34.0 size=       1KiB time=00:00:00.07 bitrate=  59.7kbits/s speed=0.0117x elapsed=0:00:06.41    \nframe=   12 fps=1.7 q=33.0 size=       1KiB time=00:00:00.09 bitrate=  48.9kbits/s speed=0.0132x elapsed=0:00:06.95    \nframe=   16 fps=2.1 q=33.0 size=       1KiB time=00:00:00.12 bitrate=  35.8kbits/s speed=0.0167x elapsed=0:00:07.48    \nframe=   19 fps=2.4 q=32.0 size=       1KiB time=00:00:00.15 bitrate=  29.9kbits/s speed=0.0187x elapsed=0:00:08.03    \nframe=   21 fps=2.5 q=31.0 size=       1KiB time=00:00:00.16 bitrate=  26.9kbits/s speed=0.0195x elapsed=0:00:08.55    \nframe=   23 fps=2.5 q=32.0 size=       1KiB time=00:00:00.18 bitrate=  24.4kbits/s speed=0.0201x elapsed=0:00:09.13    \nframe=   25 fps=2.5 q=29.0 size=       1KiB time=00:00:00.20 bitrate=  22.4kbits/s speed=0.0204x elapsed=0:00:09.82    \nframe=   27 fps=2.6 q=32.0 size=       1KiB time=00:00:00.21 bitrate=  20.7kbits/s speed=0.0208x elapsed=0:00:10.43    \nframe=   30 fps=2.7 q=33.0 size=       1KiB time=00:00:00.24 bitrate=  18.5kbits/s speed=0.022x elapsed=0:00:10.96    \nframe=   33 fps=2.9 q=20.0 size=       1KiB time=00:00:00.26 bitrate=  16.8kbits/s speed=0.0232x elapsed=0:00:11.49    \nframe=   35 fps=2.9 q=33.0 size=       1KiB time=00:00:00.28 bitrate=  15.8kbits/s speed=0.0236x elapsed=0:00:12.00    \nframe=   38 fps=3.0 q=35.0 size=       1KiB time=00:00:00.30 bitrate=  14.5kbits/s speed=0.0246x elapsed=0:00:12.52    \nframe=   39 fps=3.0 q=34.0 size=       1KiB time=00:00:00.31 bitrate=  14.1kbits/s speed=0.0242x elapsed=0:00:13.06    \nframe=   42 fps=3.1 q=35.0 size=       1KiB time=00:00:00.34 bitrate=  13.1kbits/s speed=0.0251x elapsed=0:00:13.62    \nframe=   44 fps=3.1 q=33.0 size=       1KiB time=00:00:00.35 bitrate=  12.5kbits/s speed=0.0252x elapsed=0:00:14.20    \nframe=   48 fps=3.3 q=32.0 size=       1KiB time=00:00:00.39 bitrate=  11.4kbits/s speed=0.0265x elapsed=0:00:14.76    \nframe=   51 fps=3.3 q=35.0 size=       1KiB time=00:00:00.41 bitrate=  10.8kbits/s speed=0.0273x elapsed=0:00:15.27    \nframe=   53 fps=3.4 q=33.0 size=       1KiB time=00:00:00.43 bitrate=  10.3kbits/s speed=0.0274x elapsed=0:00:15.79    \nframe=   54 fps=3.3 q=36.0 size=       1KiB time=00:00:00.44 bitrate=  10.1kbits/s speed=0.027x elapsed=0:00:16.34    \nframe=   55 fps=3.3 q=35.0 size=       1KiB time=00:00:00.45 bitrate=  10.0kbits/s speed=0.0267x elapsed=0:00:16.84    \nframe=   59 fps=3.4 q=33.0 size=       1KiB time=00:00:00.48 bitrate=   9.3kbits/s speed=0.0278x elapsed=0:00:17.39    \nframe=   62 fps=3.5 q=36.0 size=       1KiB time=00:00:00.50 bitrate=   8.8kbits/s speed=0.0284x elapsed=0:00:17.93    \nframe=   65 fps=3.5 q=18.0 size=       1KiB time=00:00:00.53 bitrate=   8.4kbits/s speed=0.0289x elapsed=0:00:18.45    \nframe=   67 fps=3.5 q=35.0 size=       1KiB time=00:00:00.55 bitrate=   8.1kbits/s speed=0.029x elapsed=0:00:18.98    \nframe=   70 fps=3.6 q=36.0 size=       1KiB time=00:00:00.57 bitrate=   7.8kbits/s speed=0.0295x elapsed=0:00:19.49    \nframe=   71 fps=3.5 q=35.0 size=       1KiB time=00:00:00.58 bitrate=   7.7kbits/s speed=0.0291x elapsed=0:00:20.06    \nframe=   74 fps=3.6 q=37.0 size=       1KiB time=00:00:00.60 bitrate=   7.4kbits/s speed=0.0294x elapsed=0:00:20.66    \nframe=   77 fps=3.6 q=29.0 size=       1KiB time=00:00:00.63 bitrate=   7.1kbits/s speed=0.0299x elapsed=0:00:21.21    \nframe=   80 fps=3.7 q=37.0 size=       1KiB time=00:00:00.65 bitrate=   6.8kbits/s speed=0.0303x elapsed=0:00:21.73    \nframe=   83 fps=3.7 q=35.0 size=       1KiB time=00:00:00.68 bitrate=   6.6kbits/s speed=0.0307x elapsed=0:00:22.27    \nframe=   86 fps=3.8 q=37.0 size=       1KiB time=00:00:00.70 bitrate=   6.3kbits/s speed=0.0311x elapsed=0:00:22.80    \nframe=   87 fps=3.7 q=35.0 size=       1KiB time=00:00:00.71 bitrate=   6.3kbits/s speed=0.0307x elapsed=0:00:23.33    \nframe=   90 fps=3.8 q=38.0 size=       1KiB time=00:00:00.74 bitrate=   6.0kbits/s speed=0.031x elapsed=0:00:23.90    \nframe=   92 fps=3.8 q=38.0 size=       1KiB time=00:00:00.75 bitrate=   5.9kbits/s speed=0.031x elapsed=0:00:24.47    \nframe=   96 fps=3.8 q=38.0 size=       1KiB time=00:00:00.79 bitrate=   5.7kbits/s speed=0.0316x elapsed=0:00:25.03    \nframe=   99 fps=3.9 q=36.0 size=       1KiB time=00:00:00.81 bitrate=   5.5kbits/s speed=0.032x elapsed=0:00:25.54    \nframe=  102 fps=3.9 q=38.0 size=       1KiB time=00:00:00.84 bitrate=   5.3kbits/s speed=0.0323x elapsed=0:00:26.06    \nframe=  103 fps=3.9 q=36.0 size=       1KiB time=00:00:00.85 bitrate=   5.3kbits/s speed=0.0319x elapsed=0:00:26.61    \nframe=  106 fps=3.9 q=38.0 size=       1KiB time=00:00:00.87 bitrate=   5.1kbits/s speed=0.0321x elapsed=0:00:27.23    \nframe=  110 fps=4.0 q=39.0 size=       1KiB time=00:00:00.90 bitrate=   5.0kbits/s speed=0.0324x elapsed=0:00:27.76    \nframe=  113 fps=4.0 q=21.0 size=       1KiB time=00:00:00.93 bitrate=   4.8kbits/s speed=0.033x elapsed=0:00:28.29    \nframe=  115 fps=4.0 q=37.0 size=       1KiB time=00:00:00.95 bitrate=   4.7kbits/s speed=0.033x elapsed=0:00:28.82    \nframe=  118 fps=4.0 q=39.0 size=       1KiB time=00:00:00.97 bitrate=   4.6kbits/s speed=0.0332x elapsed=0:00:29.34    \nframe=  119 fps=4.0 q=37.0 size=       1KiB time=00:00:00.98 bitrate=   4.6kbits/s speed=0.0329x elapsed=0:00:29.87    \nframe=  123 fps=4.0 q=35.0 size=       1KiB time=00:00:01.01 bitrate=   4.4kbits/s speed=0.0334x elapsed=0:00:30.41    \nframe=  126 fps=4.1 q=39.0 size=       1KiB time=00:00:01.04 bitrate=   4.3kbits/s speed=0.0337x elapsed=0:00:30.95    \nframe=  129 fps=4.1 q=21.0 size=       1KiB time=00:00:01.06 bitrate=   4.2kbits/s speed=0.0339x elapsed=0:00:31.48    \nframe=  131 fps=4.1 q=37.0 size=       1KiB time=00:00:01.08 bitrate=   4.1kbits/s speed=0.0338x elapsed=0:00:32.00    \nframe=  134 fps=4.1 q=39.0 size=       1KiB time=00:00:01.10 bitrate=   4.0kbits/s speed=0.0341x elapsed=0:00:32.52    \nframe=  135 fps=4.1 q=37.0 size=       1KiB time=00:00:01.11 bitrate=   4.0kbits/s speed=0.0338x elapsed=0:00:33.07    \nframe=  138 fps=4.1 q=39.0 size=       1KiB time=00:00:01.14 bitrate=   3.9kbits/s speed=0.034x elapsed=0:00:33.60    \nframe=  141 fps=4.1 q=33.0 size=       1KiB time=00:00:01.16 bitrate=   3.8kbits/s speed=0.0342x elapsed=0:00:34.12    \nframe=  145 fps=4.2 q=22.0 size=       1KiB time=00:00:01.20 bitrate=   3.7kbits/s speed=0.0346x elapsed=0:00:34.65    \nframe=  147 fps=4.2 q=38.0 size=       1KiB time=00:00:01.21 bitrate=   3.7kbits/s speed=0.0346x elapsed=0:00:35.16    \nframe=  150 fps=4.2 q=40.0 size=       1KiB time=00:00:01.24 bitrate=   3.6kbits/s speed=0.0348x elapsed=0:00:35.68    \nframe=  151 fps=4.2 q=38.0 size=       1KiB time=00:00:01.25 bitrate=   3.6kbits/s speed=0.0345x elapsed=0:00:36.20    \nframe=  154 fps=4.2 q=40.0 size=       1KiB time=00:00:01.27 bitrate=   3.5kbits/s speed=0.0347x elapsed=0:00:36.73    \nframe=  157 fps=4.2 q=33.0 size=       1KiB time=00:00:01.30 bitrate=   3.4kbits/s speed=0.0349x elapsed=0:00:37.26    \nframe=  161 fps=4.3 q=23.0 size=       1KiB time=00:00:01.33 bitrate=   3.4kbits/s speed=0.0353x elapsed=0:00:37.77    \nframe=  163 fps=4.3 q=38.0 size=       1KiB time=00:00:01.35 bitrate=   3.3kbits/s speed=0.0353x elapsed=0:00:38.28    \nframe=  166 fps=4.3 q=40.0 size=       1KiB time=00:00:01.37 bitrate=   3.3kbits/s speed=0.0354x elapsed=0:00:38.80    \nframe=  167 fps=4.2 q=38.0 size=       1KiB time=00:00:01.38 bitrate=   3.2kbits/s speed=0.0352x elapsed=0:00:39.33    \nframe=  171 fps=4.3 q=37.0 size=       1KiB time=00:00:01.41 bitrate=   3.2kbits/s speed=0.0355x elapsed=0:00:39.86    \nframe=  175 fps=4.3 q=37.0 size=       1KiB time=00:00:01.45 bitrate=   3.1kbits/s speed=0.0359x elapsed=0:00:40.41    \nframe=  178 fps=4.3 q=41.0 size=       1KiB time=00:00:01.47 bitrate=   3.0kbits/s speed=0.036x elapsed=0:00:40.93    \nframe=  181 fps=4.4 q=37.0 size=       1KiB time=00:00:01.50 bitrate=   3.0kbits/s speed=0.0362x elapsed=0:00:41.44    \nframe=  183 fps=4.4 q=39.0 size=       1KiB time=00:00:01.51 bitrate=   3.0kbits/s speed=0.0361x elapsed=0:00:41.97    \nframe=  186 fps=4.4 q=41.0 size=       1KiB time=00:00:01.54 bitrate=   2.9kbits/s speed=0.0362x elapsed=0:00:42.56    \nframe=  189 fps=4.4 q=35.0 size=       1KiB time=00:00:01.56 bitrate=   2.9kbits/s speed=0.0364x elapsed=0:00:43.08    \nframe=  193 fps=4.4 q=24.0 size=       1KiB time=00:00:01.60 bitrate=   2.8kbits/s speed=0.0367x elapsed=0:00:43.60    \nframe=  195 fps=4.4 q=39.0 size=       1KiB time=00:00:01.61 bitrate=   2.8kbits/s speed=0.0366x elapsed=0:00:44.11    \nframe=  198 fps=4.4 q=41.0 size=       1KiB time=00:00:01.64 bitrate=   2.7kbits/s speed=0.0368x elapsed=0:00:44.63    \nframe=  199 fps=4.4 q=39.0 size=       1KiB time=00:00:01.65 bitrate=   2.7kbits/s speed=0.0365x elapsed=0:00:45.15    \nframe=  203 fps=4.4 q=38.0 size=       1KiB time=00:00:01.68 bitrate=   2.7kbits/s speed=0.0369x elapsed=0:00:45.66    \nframe=  207 fps=4.5 q=37.0 size=       1KiB time=00:00:01.71 bitrate=   2.6kbits/s speed=0.0372x elapsed=0:00:46.19    \nframe=  210 fps=4.5 q=41.0 size=       1KiB time=00:00:01.74 bitrate=   2.6kbits/s speed=0.0373x elapsed=0:00:46.70    \nframe=  213 fps=4.5 q=37.0 size=       1KiB time=00:00:01.76 bitrate=   2.5kbits/s speed=0.0374x elapsed=0:00:47.22    \nframe=  215 fps=4.5 q=39.0 size=       1KiB time=00:00:01.78 bitrate=   2.5kbits/s speed=0.0373x elapsed=0:00:47.74    \nframe=  218 fps=4.5 q=41.0 size=       1KiB time=00:00:01.80 bitrate=   2.5kbits/s speed=0.0374x elapsed=0:00:48.33    \nframe=  221 fps=4.5 q=35.0 size=       1KiB time=00:00:01.83 bitrate=   2.4kbits/s speed=0.0375x elapsed=0:00:48.90    \nframe=  225 fps=4.6 q=25.0 size=       1KiB time=00:00:01.86 bitrate=   2.4kbits/s speed=0.0378x elapsed=0:00:49.44    \nframe=  228 fps=4.6 q=41.0 size=       1KiB time=00:00:01.89 bitrate=   2.4kbits/s speed=0.0379x elapsed=0:00:49.97    \nframe=  230 fps=4.6 q=41.0 size=       1KiB time=00:00:01.90 bitrate=   2.3kbits/s speed=0.0378x elapsed=0:00:50.48    \nframe=  231 fps=4.5 q=39.0 size=       1KiB time=00:00:01.91 bitrate=   2.3kbits/s speed=0.0376x elapsed=0:00:51.00    \nframe=  235 fps=4.6 q=38.0 size=       1KiB time=00:00:01.95 bitrate=   2.3kbits/s speed=0.0378x elapsed=0:00:51.52    \nframe=  238 fps=4.6 q=42.0 size=       1KiB time=00:00:01.97 bitrate=   2.3kbits/s speed=0.0379x elapsed=0:00:52.05    \nframe=  242 fps=4.6 q=42.0 size=       1KiB time=00:00:02.00 bitrate=   2.2kbits/s speed=0.0382x elapsed=0:00:52.57    \nframe=  245 fps=4.6 q=37.0 size=       1KiB time=00:00:02.03 bitrate=   2.2kbits/s speed=0.0383x elapsed=0:00:53.14    \nframe=  247 fps=4.6 q=39.0 size=       1KiB time=00:00:02.05 bitrate=   2.2kbits/s speed=0.0382x elapsed=0:00:53.67    \nframe=  250 fps=4.6 q=42.0 size=       1KiB time=00:00:02.07 bitrate=   2.2kbits/s speed=0.0383x elapsed=0:00:54.21    \nframe=  252 fps=4.6 q=42.0 size=       1KiB time=00:00:02.09 bitrate=   2.1kbits/s speed=0.0382x elapsed=0:00:54.73    \nframe=  256 fps=4.6 q=42.0 size=       1KiB time=00:00:02.12 bitrate=   2.1kbits/s speed=0.0384x elapsed=0:00:55.27    \nframe=  259 fps=4.6 q=40.0 size=       1KiB time=00:00:02.15 bitrate=   2.1kbits/s speed=0.0385x elapsed=0:00:55.78    \nframe=  262 fps=4.7 q=42.0 size=       1KiB time=00:00:02.17 bitrate=   2.1kbits/s speed=0.0386x elapsed=0:00:56.31    \nframe=  263 fps=4.6 q=40.0 size=       1KiB time=00:00:02.18 bitrate=   2.1kbits/s speed=0.0384x elapsed=0:00:56.83    \nframe=  267 fps=4.7 q=38.0 size=       1KiB time=00:00:02.21 bitrate=   2.0kbits/s speed=0.0386x elapsed=0:00:57.39    \nframe=  270 fps=4.7 q=42.0 size=       1KiB time=00:00:02.24 bitrate=   2.0kbits/s speed=0.0387x elapsed=0:00:57.95    \nframe=  273 fps=4.7 q=25.0 size=       1KiB time=00:00:02.26 bitrate=   2.0kbits/s speed=0.0387x elapsed=0:00:58.53    \nframe=  275 fps=4.7 q=40.0 size=       1KiB time=00:00:02.28 bitrate=   2.0kbits/s speed=0.0387x elapsed=0:00:59.07    \nframe=  278 fps=4.7 q=42.0 size=       1KiB time=00:00:02.30 bitrate=   1.9kbits/s speed=0.0387x elapsed=0:00:59.59    \nframe=  279 fps=4.6 q=40.0 size=       1KiB time=00:00:02.31 bitrate=   1.9kbits/s speed=0.0385x elapsed=0:01:00.12    \nframe=  283 fps=4.7 q=39.0 size=       1KiB time=00:00:02.35 bitrate=   1.9kbits/s speed=0.0387x elapsed=0:01:00.70    \nframe=  285 fps=4.7 q=36.0 size=       1KiB time=00:00:02.36 bitrate=   1.9kbits/s speed=0.0386x elapsed=0:01:01.28    \nframe=  288 fps=4.7 q=42.0 size=       1KiB time=00:00:02.39 bitrate=   1.9kbits/s speed=0.0387x elapsed=0:01:01.80    \nframe=  290 fps=4.7 q=42.0 size=       1KiB time=00:00:02.40 bitrate=   1.9kbits/s speed=0.0386x elapsed=0:01:02.32    \nframe=  291 fps=4.6 q=40.0 size=       1KiB time=00:00:02.41 bitrate=   1.9kbits/s speed=0.0385x elapsed=0:01:02.83    \nframe=  294 fps=4.6 q=42.0 size=       1KiB time=00:00:02.44 bitrate=   1.8kbits/s speed=0.0385x elapsed=0:01:03.35    \nframe=  295 fps=4.6 q=40.0 size=       1KiB time=00:00:02.45 bitrate=   1.8kbits/s speed=0.0384x elapsed=0:01:03.87    \nframe=  295 fps=4.6 q=40.0 size=       1KiB time=00:00:02.45 bitrate=   1.8kbits/s speed=0.038x elapsed=0:01:04.41    \nframe=  298 fps=4.6 q=42.0 size=       1KiB time=00:00:02.47 bitrate=   1.8kbits/s speed=0.0381x elapsed=0:01:04.92    \nframe=  300 fps=4.6 q=42.0 size=       1KiB time=00:00:02.49 bitrate=   1.8kbits/s speed=0.0381x elapsed=0:01:05.44    \nframe=  304 fps=4.6 q=42.0 size=       1KiB time=00:00:02.52 bitrate=   1.8kbits/s speed=0.0383x elapsed=0:01:05.96    \nframe=  306 fps=4.6 q=42.0 size=       1KiB time=00:00:02.54 bitrate=   1.8kbits/s speed=0.0382x elapsed=0:01:06.47    \nframe=  307 fps=4.6 q=40.0 size=       1KiB time=00:00:02.55 bitrate=   1.8kbits/s speed=0.0381x elapsed=0:01:06.99    \nframe=  310 fps=4.6 q=42.0 size=       1KiB time=00:00:02.57 bitrate=   1.7kbits/s speed=0.0381x elapsed=0:01:07.50    \nframe=  311 fps=4.6 q=40.0 size=       1KiB time=00:00:02.58 bitrate=   1.7kbits/s speed=0.038x elapsed=0:01:08.03    \nframe=  311 fps=4.5 q=40.0 size=       1KiB time=00:00:02.58 bitrate=   1.7kbits/s speed=0.0377x elapsed=0:01:08.55    \nframe=  315 fps=4.6 q=39.0 size=       1KiB time=00:00:02.61 bitrate=   1.7kbits/s speed=0.0379x elapsed=0:01:09.07    \nframe=  316 fps=4.5 q=43.0 size=       1KiB time=00:00:02.62 bitrate=   1.7kbits/s speed=0.0377x elapsed=0:01:09.58    \nframe=  320 fps=4.6 q=43.0 size=       1KiB time=00:00:02.65 bitrate=   1.7kbits/s speed=0.0379x elapsed=0:01:10.10    \nframe=  321 fps=4.5 q=27.0 size=       1KiB time=00:00:02.66 bitrate=   1.7kbits/s speed=0.0378x elapsed=0:01:10.61    \nframe=  323 fps=4.5 q=40.0 size=       1KiB time=00:00:02.68 bitrate=   1.7kbits/s speed=0.0377x elapsed=0:01:11.13    \nframe=  326 fps=4.6 q=43.0 size=       1KiB time=00:00:02.70 bitrate=   1.7kbits/s speed=0.0378x elapsed=0:01:11.64    \nframe=  326 fps=4.5 q=43.0 size=       1KiB time=00:00:02.70 bitrate=   1.7kbits/s speed=0.0375x elapsed=0:01:12.17    \nframe=  327 fps=4.5 q=40.0 size=       1KiB time=00:00:02.71 bitrate=   1.6kbits/s speed=0.0374x elapsed=0:01:12.68    \nframe=  330 fps=4.5 q=43.0 size=       1KiB time=00:00:02.74 bitrate=   1.6kbits/s speed=0.0375x elapsed=0:01:13.19    \nframe=  334 fps=4.5 q=43.0 size=       1KiB time=00:00:02.77 bitrate=   1.6kbits/s speed=0.0376x elapsed=0:01:13.75    \nframe=  337 fps=4.5 q=27.0 size=       1KiB time=00:00:02.80 bitrate=   1.6kbits/s speed=0.0377x elapsed=0:01:14.30    \nframe=  340 fps=4.5 q=43.0 size=       1KiB time=00:00:02.82 bitrate=   1.6kbits/s speed=0.0377x elapsed=0:01:14.83    \nframe=  342 fps=4.5 q=43.0 size=       1KiB time=00:00:02.84 bitrate=   1.6kbits/s speed=0.0377x elapsed=0:01:15.35    \nframe=  343 fps=4.5 q=40.0 size=       1KiB time=00:00:02.85 bitrate=   1.6kbits/s speed=0.0376x elapsed=0:01:15.87    \nframe=  347 fps=4.5 q=39.0 size=       1KiB time=00:00:02.88 bitrate=   1.6kbits/s speed=0.0377x elapsed=0:01:16.41    \nframe=  351 fps=4.6 q=39.0 size=       1KiB time=00:00:02.90 bitrate=   1.5kbits/s speed=0.0378x elapsed=0:01:16.96    \nframe=  354 fps=4.6 q=43.0 size=       1KiB time=00:00:02.94 bitrate=   1.5kbits/s speed=0.038x elapsed=0:01:17.49    \nframe=  357 fps=4.6 q=39.0 size=    5120KiB time=00:00:02.96 bitrate=14138.1kbits/s speed=0.038x elapsed=0:01:18.03    \nframe=  358 fps=4.6 q=43.0 size=    5120KiB time=00:00:02.97 bitrate=14098.5kbits/s speed=0.0379x elapsed=0:01:18.54    \nframe=  360 fps=4.6 q=43.0 size=    5120KiB time=00:00:02.99 bitrate=14020.0kbits/s speed=0.0378x elapsed=0:01:19.05    \nframe=  363 fps=4.6 q=40.0 size=    5120KiB time=00:00:03.01 bitrate=13903.8kbits/s speed=0.0379x elapsed=0:01:19.57    \nframe=  367 fps=4.6 q=39.0 size=    5120KiB time=00:00:03.05 bitrate=13751.8kbits/s speed=0.0381x elapsed=0:01:20.08    \nframe=  370 fps=4.6 q=43.0 size=    5120KiB time=00:00:03.07 bitrate=13640.0kbits/s speed=0.0381x elapsed=0:01:20.61    \nframe=  373 fps=4.6 q=39.0 size=    5120KiB time=00:00:03.10 bitrate=13530.0kbits/s speed=0.0382x elapsed=0:01:21.14    \nframe=  374 fps=4.6 q=43.0 size=    5120KiB time=00:00:03.10 bitrate=13493.7kbits/s speed=0.0381x elapsed=0:01:21.66    \nframe=  377 fps=4.6 q=36.0 size=    5120KiB time=00:00:03.13 bitrate=13386.1kbits/s speed=0.0381x elapsed=0:01:22.19    \nframe=  379 fps=4.6 q=40.0 size=    5120KiB time=00:00:03.15 bitrate=13315.3kbits/s speed=0.0381x elapsed=0:01:22.71    \nframe=  384 fps=4.6 q=44.0 size=    5120KiB time=00:00:03.19 bitrate=13141.4kbits/s speed=0.0383x elapsed=0:01:23.24    \nframe=  386 fps=4.6 q=44.0 size=    5120KiB time=00:00:03.20 bitrate=13073.2kbits/s speed=0.0383x elapsed=0:01:23.75    \nframe=  389 fps=4.6 q=39.0 size=    5120KiB time=00:00:03.23 bitrate=12972.1kbits/s speed=0.0384x elapsed=0:01:24.27    \nframe=  390 fps=4.6 q=44.0 size=    5120KiB time=00:00:03.24 bitrate=12938.7kbits/s speed=0.0382x elapsed=0:01:24.79    \nframe=  391 fps=4.6 q=41.0 size=    5120KiB time=00:00:03.25 bitrate=12905.6kbits/s speed=0.0381x elapsed=0:01:25.31    \nframe=  394 fps=4.6 q=44.0 size=    5120KiB time=00:00:03.27 bitrate=12807.0kbits/s speed=0.0382x elapsed=0:01:25.83    \nframe=  395 fps=4.6 q=40.0 size=    5120KiB time=00:00:03.28 bitrate=12774.5kbits/s speed=0.038x elapsed=0:01:26.37    \nframe=  396 fps=4.6 q=44.0 size=    5120KiB time=00:00:03.29 bitrate=12742.2kbits/s speed=0.0379x elapsed=0:01:26.91    \nframe=  399 fps=4.6 q=40.0 size=    5120KiB time=00:00:03.31 bitrate=12646.1kbits/s speed=0.0379x elapsed=0:01:27.43    \nframe=  401 fps=4.6 q=30.0 size=    5120KiB time=00:00:03.33 bitrate=12582.9kbits/s speed=0.0379x elapsed=0:01:27.94    \nframe=  403 fps=4.6 q=41.0 size=    5120KiB time=00:00:03.35 bitrate=12520.3kbits/s speed=0.0379x elapsed=0:01:28.47    \nframe=  405 fps=4.6 q=40.0 size=    5120KiB time=00:00:03.36 bitrate=12458.3kbits/s speed=0.0378x elapsed=0:01:29.00    \nframe=  406 fps=4.5 q=44.0 size=    5120KiB time=00:00:03.37 bitrate=12427.6kbits/s speed=0.0377x elapsed=0:01:29.52    \nframe=  407 fps=4.5 q=41.0 size=    5120KiB time=00:00:03.38 bitrate=12397.0kbits/s speed=0.0376x elapsed=0:01:30.04    \nframe=  409 fps=4.5 q=37.0 size=    5120KiB time=00:00:03.40 bitrate=12336.2kbits/s speed=0.0375x elapsed=0:01:30.55    \nframe=  411 fps=4.5 q=40.0 size=    5120KiB time=00:00:03.41 bitrate=12276.0kbits/s speed=0.0375x elapsed=0:01:31.06    \nframe=  414 fps=4.5 q=44.0 size=    5120KiB time=00:00:03.44 bitrate=12186.8kbits/s speed=0.0376x elapsed=0:01:31.59    \nframe=  416 fps=4.5 q=44.0 size=    5120KiB time=00:00:03.45 bitrate=12128.1kbits/s speed=0.0375x elapsed=0:01:32.10    \nframe=  418 fps=4.5 q=44.0 size=    5120KiB time=00:00:03.47 bitrate=12069.9kbits/s speed=0.0375x elapsed=0:01:32.62    \nframe=  420 fps=4.5 q=44.0 size=    5120KiB time=00:00:03.49 bitrate=12012.3kbits/s speed=0.0375x elapsed=0:01:33.13    \nframe=  422 fps=4.5 q=44.0 size=    5120KiB time=00:00:03.50 bitrate=11955.3kbits/s speed=0.0375x elapsed=0:01:33.65    \nframe=  423 fps=4.5 q=41.0 size=    5120KiB time=00:00:03.51 bitrate=11926.9kbits/s speed=0.0373x elapsed=0:01:34.17    \nframe=  424 fps=4.5 q=44.0 size=    5120KiB time=00:00:03.52 bitrate=11898.7kbits/s speed=0.0372x elapsed=0:01:34.69    \nframe=  427 fps=4.5 q=40.0 size=    5120KiB time=00:00:03.55 bitrate=11814.9kbits/s speed=0.0373x elapsed=0:01:35.21    \nframe=  430 fps=4.5 q=44.0 size=    5120KiB time=00:00:03.57 bitrate=11732.3kbits/s speed=0.0373x elapsed=0:01:35.73    \nframe=  433 fps=4.5 q=30.0 size=    5120KiB time=00:00:03.60 bitrate=11650.8kbits/s speed=0.0374x elapsed=0:01:36.28    \nframe=  436 fps=4.5 q=44.0 size=    5120KiB time=00:00:03.62 bitrate=11570.5kbits/s speed=0.0374x elapsed=0:01:36.79    \nframe=  438 fps=4.5 q=44.0 size=    5120KiB time=00:00:03.64 bitrate=11517.5kbits/s speed=0.0374x elapsed=0:01:37.31    \nframe=  440 fps=4.5 q=44.0 size=    5120KiB time=00:00:03.65 bitrate=11465.1kbits/s speed=0.0374x elapsed=0:01:37.84    \nframe=  443 fps=4.5 q=40.0 size=    5120KiB time=00:00:03.68 bitrate=11387.3kbits/s speed=0.0374x elapsed=0:01:38.36    \nframe=  448 fps=4.5 q=44.0 size=    5120KiB time=00:00:03.72 bitrate=11259.9kbits/s speed=0.0377x elapsed=0:01:38.88    \nframe=  451 fps=4.5 q=41.0 size=    5120KiB time=00:00:03.75 bitrate=11184.8kbits/s speed=0.0377x elapsed=0:01:39.40    \nframe=  454 fps=4.5 q=44.0 size=    5120KiB time=00:00:03.77 bitrate=11110.7kbits/s speed=0.0378x elapsed=0:01:39.92    \nframe=  455 fps=4.5 q=41.0 size=    5120KiB time=00:00:03.78 bitrate=11086.3kbits/s speed=0.0377x elapsed=0:01:40.44    \nframe=  458 fps=4.5 q=44.0 size=    5120KiB time=00:00:03.80 bitrate=11013.5kbits/s speed=0.0377x elapsed=0:01:40.98    \nframe=  462 fps=4.6 q=44.0 size=    5120KiB time=00:00:03.84 bitrate=10917.9kbits/s speed=0.0378x elapsed=0:01:41.51    \nframe=  465 fps=4.6 q=30.0 size=    5120KiB time=00:00:03.86 bitrate=10847.3kbits/s speed=0.0379x elapsed=0:01:42.04    \nframe=  468 fps=4.6 q=44.0 size=    5120KiB time=00:00:03.89 bitrate=10777.7kbits/s speed=0.0379x elapsed=0:01:42.55    \nframe=  470 fps=4.6 q=44.0 size=    5120KiB time=00:00:03.90 bitrate=10731.7kbits/s speed=0.0379x elapsed=0:01:43.07    \nframe=  473 fps=4.6 q=37.0 size=    5120KiB time=00:00:03.92 bitrate=10686.1kbits/s speed=0.0379x elapsed=0:01:43.59    \nframe=  476 fps=4.6 q=44.0 size=    5120KiB time=00:00:03.95 bitrate=10596.1kbits/s speed=0.038x elapsed=0:01:44.11    \nframe=  480 fps=4.6 q=44.0 size=    5120KiB time=00:00:03.99 bitrate=10507.7kbits/s speed=0.0381x elapsed=0:01:44.68    \nframe=  483 fps=4.6 q=42.0 size=    5120KiB time=00:00:04.01 bitrate=10442.2kbits/s speed=0.0382x elapsed=0:01:45.19    \nframe=  486 fps=4.6 q=44.0 size=    5120KiB time=00:00:04.04 bitrate=10377.7kbits/s speed=0.0382x elapsed=0:01:45.71    \nframe=  487 fps=4.6 q=42.0 size=    5120KiB time=00:00:04.05 bitrate=10356.3kbits/s speed=0.0381x elapsed=0:01:46.22    \nframe=  491 fps=4.6 q=41.0 size=    5120KiB time=00:00:04.08 bitrate=10271.8kbits/s speed=0.0382x elapsed=0:01:46.75    \nframe=  494 fps=4.6 q=44.0 size=    5120KiB time=00:00:04.10 bitrate=10209.3kbits/s speed=0.0383x elapsed=0:01:47.29    \nframe=  498 fps=4.6 q=44.0 size=    5120KiB time=00:00:04.14 bitrate=10127.1kbits/s speed=0.0384x elapsed=0:01:47.81    \nframe=  501 fps=4.6 q=40.0 size=    5120KiB time=00:00:04.16 bitrate=10066.3kbits/s speed=0.0385x elapsed=0:01:48.33    \nframe=  505 fps=4.6 q=37.0 size=    5120KiB time=00:00:04.20 bitrate=9986.4kbits/s speed=0.0386x elapsed=0:01:48.89    \nframe=  507 fps=4.6 q=41.0 size=    5120KiB time=00:00:04.21 bitrate=9947.0kbits/s speed=0.0385x elapsed=0:01:49.53    \nframe=  511 fps=4.6 q=40.0 size=    5120KiB time=00:00:04.25 bitrate=9869.0kbits/s speed=0.0386x elapsed=0:01:50.13    \nframe=  513 fps=4.6 q=31.0 size=    5120KiB time=00:00:04.26 bitrate=9830.4kbits/s speed=0.0385x elapsed=0:01:50.69    \nframe=  517 fps=4.6 q=39.0 size=    5120KiB time=00:00:04.30 bitrate=9754.2kbits/s speed=0.0387x elapsed=0:01:51.21    \nframe=  521 fps=4.7 q=37.0 size=    5120KiB time=00:00:04.33 bitrate=9679.2kbits/s speed=0.0388x elapsed=0:01:51.72    \nframe=  523 fps=4.7 q=41.0 size=    5120KiB time=00:00:04.35 bitrate=9642.1kbits/s speed=0.0387x elapsed=0:01:52.26    \nframe=  525 fps=4.7 q=39.0 size=    5120KiB time=00:00:04.36 bitrate=9605.3kbits/s speed=0.0387x elapsed=0:01:52.79    \nframe=  531 fps=4.7 q=42.0 size=    5120KiB time=00:00:04.41 bitrate=9496.5kbits/s speed=0.039x elapsed=0:01:53.31    \nframe=  535 fps=4.7 q=42.0 size=    5120KiB time=00:00:04.45 bitrate=9425.4kbits/s speed=0.0391x elapsed=0:01:53.81    \nframe=  537 fps=4.7 q=38.0 size=    5120KiB time=00:00:04.46 bitrate=9390.2kbits/s speed=0.0391x elapsed=0:01:54.33    \nframe=  541 fps=4.7 q=39.0 size=    5120KiB time=00:00:04.50 bitrate=9320.7kbits/s speed=0.0392x elapsed=0:01:54.84    \nframe=  545 fps=4.7 q=31.0 size=    5120KiB time=00:00:04.53 bitrate=9252.1kbits/s speed=0.0393x elapsed=0:01:55.36    \nframe=  549 fps=4.7 q=41.0 size=    5120KiB time=00:00:04.56 bitrate=9184.6kbits/s speed=0.0394x elapsed=0:01:55.89    \nframe=  553 fps=4.8 q=38.0 size=    5120KiB time=00:00:04.60 bitrate=9118.1kbits/s speed=0.0395x elapsed=0:01:56.41    \nframe=  555 fps=4.7 q=41.0 size=    5120KiB time=00:00:04.61 bitrate=9085.1kbits/s speed=0.0395x elapsed=0:01:56.94    \nframe=  559 fps=4.8 q=41.0 size=    5120KiB time=00:00:04.65 bitrate=9020.0kbits/s speed=0.0396x elapsed=0:01:57.49    \nframe=  561 fps=4.8 q=31.0 size=    5120KiB time=00:00:04.66 bitrate=8987.8kbits/s speed=0.0395x elapsed=0:01:58.02    \nframe=  565 fps=4.8 q=41.0 size=    5120KiB time=00:00:04.70 bitrate=8924.1kbits/s speed=0.0396x elapsed=0:01:58.55    \nframe=  569 fps=4.8 q=38.0 size=    5120KiB time=00:00:04.73 bitrate=8861.2kbits/s speed=0.0398x elapsed=0:01:59.07    \nframe=  569 fps=4.8 q=38.0 size=    5120KiB time=00:00:04.73 bitrate=8861.2kbits/s speed=0.0396x elapsed=0:01:59.59    \nframe=  571 fps=4.8 q=41.0 size=    5120KiB time=00:00:04.75 bitrate=8830.1kbits/s speed=0.0395x elapsed=0:02:00.11    \nframe=  573 fps=4.7 q=39.0 size=    5120KiB time=00:00:04.76 bitrate=8799.2kbits/s speed=0.0395x elapsed=0:02:00.64    \nframe=  577 fps=4.8 q=31.0 size=    5120KiB time=00:00:04.80 bitrate=8738.1kbits/s speed=0.0396x elapsed=0:02:01.16    \nframe=  577 fps=4.7 q=31.0 size=    5120KiB time=00:00:04.80 bitrate=8738.1kbits/s speed=0.0394x elapsed=0:02:01.67    \nframe=  581 fps=4.8 q=43.0 size=    5120KiB time=00:00:04.83 bitrate=8677.9kbits/s speed=0.0396x elapsed=0:02:02.19    \nframe=  585 fps=4.8 q=39.0 size=    5120KiB time=00:00:04.86 bitrate=8618.4kbits/s speed=0.0397x elapsed=0:02:02.71    \nframe=  585 fps=4.7 q=39.0 size=    5120KiB time=00:00:04.86 bitrate=8618.4kbits/s speed=0.0395x elapsed=0:02:03.23    \nframe=  587 fps=4.7 q=43.0 size=    5120KiB time=00:00:04.88 bitrate=8589.0kbits/s speed=0.0395x elapsed=0:02:03.74    \nframe=  591 fps=4.8 q=43.0 size=    5120KiB time=00:00:04.90 bitrate=8559.8kbits/s speed=0.0394x elapsed=0:02:04.26    \n[out#0/matroska @ 0000024cdbc293c0] video:8070KiB audio:0KiB subtitle:0KiB other streams:0KiB global headers:0KiB muxing overhead: 0.041703%\nframe=  600 fps=4.8 q=44.0 Lsize=    8073KiB time=00:00:04.99 bitrate=13248.8kbits/s speed=0.0401x elapsed=0:02:04.45    \n",
  "seconds": 125.25286817550659,
  "probe_out": {}
}